<?xml version="1.0" standalone="no"?>
<!DOCTYPE svg PUBLIC "-//W3C//DTD SVG 20010904//EN"
 "http://www.w3.org/TR/2001/REC-SVG-20010904/DTD/svg10.dtd">
<svg version="1.0" xmlns="http://www.w3.org/2000/svg"
 width="1563.000000pt" height="1563.000000pt" viewBox="0 0 1563.000000 1563.000000"
 preserveAspectRatio="xMidYMid meet">
<metadata>
Created by potrace 1.14, written by Peter Selinger 2001-2017
</metadata>
<g transform="translate(0.000000,1563.000000) scale(0.100000,-0.100000)"
fill="#000000" stroke="none">
<path d="M6630 15374 c-163 -31 -339 -153 -425 -294 -99 -163 -119 -389 -51
-561 l14 -35 -80 -80 c-207 -203 -451 -508 -636 -795 l-42 -65 -132 27 c-73
16 -149 31 -168 34 -19 3 -48 8 -65 10 -16 3 -43 7 -59 10 -50 8 -297 34 -386
40 -90 7 -431 7 -515 0 -305 -24 -592 -86 -831 -181 -420 -165 -741 -420 -987
-783 -74 -110 -187 -337 -236 -476 -72 -204 -124 -449 -150 -705 -11 -111 -11
-500 0 -615 25 -271 44 -399 86 -605 14 -69 26 -134 27 -144 1 -14 -21 -35
-74 -69 -209 -137 -402 -282 -575 -430 -70 -61 -304 -292 -360 -358 -333 -384
-536 -775 -614 -1182 -27 -143 -34 -214 -35 -357 -2 -269 46 -529 143 -780
l38 -98 -24 -29 c-147 -169 -196 -404 -127 -610 48 -143 155 -279 279 -352
165 -99 382 -116 562 -45 l62 25 126 -106 c151 -127 307 -244 475 -355 69 -46
126 -84 128 -85 2 -2 -8 -59 -22 -127 -26 -126 -51 -268 -61 -348 -3 -25 -8
-56 -10 -70 -2 -14 -7 -54 -10 -90 -3 -36 -10 -105 -14 -155 -11 -115 -11
-476 0 -580 9 -88 29 -248 35 -280 2 -11 9 -46 14 -77 34 -187 128 -458 222
-641 197 -384 524 -706 910 -895 l116 -57 -3 -75 c-8 -178 57 -350 180 -476
105 -106 222 -163 379 -185 234 -32 472 80 606 286 38 58 90 186 90 221 0 8
10 14 23 15 12 0 45 2 72 4 28 2 92 6 143 10 51 3 98 8 105 10 6 2 44 6 82 10
105 9 363 50 465 75 97 23 80 33 173 -107 405 -613 875 -1059 1372 -1306 240
-119 447 -181 740 -222 49 -7 367 -8 415 -1 19 3 56 7 81 11 332 43 719 205
1037 432 355 255 716 645 1008 1088 43 66 79 121 79 122 1 2 33 -4 71 -12 82
-18 397 -71 469 -79 144 -17 133 -12 145 -71 15 -73 78 -199 132 -265 93 -114
242 -197 393 -220 127 -19 244 0 374 62 65 31 100 56 160 116 114 114 174 235
189 384 l7 71 110 37 c235 80 385 154 570 284 481 337 789 869 885 1529 27
189 33 269 34 467 0 165 -10 416 -19 443 -2 7 -6 41 -10 77 -11 119 -40 300
-76 467 -10 51 -19 99 -19 106 0 8 46 45 103 82 296 197 525 382 748 605 460
460 724 950 795 1475 12 96 13 425 0 503 -3 18 -8 52 -11 75 -3 23 -17 89 -31
147 -91 386 -287 749 -599 1105 -225 258 -593 568 -927 781 -45 28 -78 56 -78
65 0 9 9 60 20 113 21 102 55 301 65 376 3 25 7 61 10 80 39 301 39 677 0 960
-27 192 -81 417 -135 560 -11 30 -26 69 -32 85 -28 75 -146 298 -199 376 -333
497 -833 809 -1479 923 -109 19 -139 23 -230 31 -41 3 -95 8 -120 11 -50 6
-445 6 -500 0 -19 -2 -72 -7 -118 -11 -45 -3 -93 -8 -105 -10 -12 -2 -62 -9
-112 -14 -49 -6 -101 -13 -115 -15 -14 -3 -41 -7 -60 -10 -19 -4 -95 -19 -168
-34 l-134 -29 -78 116 c-235 348 -357 499 -600 741 -314 315 -613 517 -980
663 -392 157 -847 186 -1252 82 l-58 -16 -64 63 c-72 72 -147 120 -244 156
-55 20 -88 25 -182 28 -63 1 -126 0 -140 -2z m261 -233 c93 -36 169 -101 117
-101 -6 0 -74 -32 -152 -71 -145 -73 -304 -172 -435 -273 -84 -63 -88 -63 -94
25 -14 194 109 369 301 429 76 24 188 20 263 -9z m1079 -156 c114 -8 147 -13
265 -40 541 -126 1068 -507 1527 -1106 148 -194 252 -348 236 -353 -7 -3 -76
-23 -153 -45 -226 -65 -637 -209 -761 -266 -16 -8 -82 -36 -145 -63 -321 -138
-915 -440 -1096 -558 -21 -13 -35 -7 -225 99 -643 360 -1288 638 -1838 792
-74 21 -138 41 -143 45 -7 6 100 169 191 293 143 192 435 517 466 517 5 0 16
-8 25 -18 55 -60 166 -119 274 -147 354 -90 711 140 778 503 11 53 7 195 -7
268 l-6 31 89 18 c101 20 315 42 388 39 28 -2 88 -5 135 -9z m-809 -164 c11
-53 2 -154 -20 -215 -64 -182 -257 -299 -449 -273 -68 9 -163 49 -212 91 l-30
25 43 34 c68 56 249 180 337 232 99 58 289 145 310 142 8 -1 17 -17 21 -36z
m-2481 -1376 c25 -3 86 -10 135 -16 50 -6 158 -22 240 -35 83 -14 167 -28 188
-31 21 -3 40 -9 42 -13 3 -4 -16 -43 -41 -86 -136 -238 -354 -707 -479 -1034
-92 -241 -232 -666 -296 -901 l-53 -196 -191 -53 c-104 -29 -258 -75 -341
-102 -84 -26 -156 -48 -160 -48 -5 0 -22 21 -38 46 -57 90 -174 189 -274 231
-244 104 -514 51 -703 -138 -127 -125 -190 -287 -183 -467 2 -45 8 -99 13
-119 6 -20 9 -38 8 -39 -1 -1 -45 -24 -97 -51 -52 -27 -130 -69 -173 -93 -43
-23 -80 -41 -82 -38 -6 6 -53 247 -60 313 -4 33 -9 62 -10 66 -2 3 -7 39 -11
80 -3 40 -8 76 -9 79 -16 28 -25 513 -13 675 54 709 363 1285 869 1624 283
188 705 323 1085 347 55 4 101 8 103 10 6 6 476 -4 531 -11z m6930 1 c14 -2
54 -7 88 -11 253 -24 527 -102 757 -215 243 -119 402 -238 570 -427 299 -335
469 -764 516 -1303 11 -125 8 -565 -5 -630 -2 -14 -7 -56 -11 -95 -4 -38 -8
-77 -10 -85 -1 -8 -5 -37 -9 -65 -14 -103 -59 -340 -66 -348 -4 -5 -31 6 -61
23 -29 18 -126 70 -215 116 l-161 84 9 48 c5 26 6 85 3 132 -12 156 -71 286
-180 396 -76 76 -119 107 -205 144 -117 50 -258 63 -380 35 -164 -38 -280
-118 -402 -276 -12 -15 -24 -13 -138 23 -69 21 -206 61 -304 88 -99 28 -181
51 -182 53 -1 1 -17 54 -34 117 -217 790 -455 1389 -807 2028 -19 35 -32 66
-30 69 12 11 273 59 432 78 28 4 61 8 75 11 14 2 79 7 145 10 66 4 122 8 124
10 6 5 450 -4 481 -10z m-5990 -175 c245 -65 755 -245 974 -345 28 -13 85 -38
126 -56 139 -60 534 -257 713 -356 l178 -98 -88 -55 c-345 -216 -791 -533
-1131 -803 -85 -68 -132 -98 -150 -98 -15 -1 -43 -3 -62 -5 -290 -37 -429 -56
-445 -59 -11 -2 -45 -7 -75 -11 -30 -4 -64 -9 -75 -11 -36 -7 -69 -13 -115
-19 -25 -3 -52 -8 -60 -10 -8 -2 -33 -6 -55 -10 -104 -15 -622 -122 -687 -141
-15 -5 -15 1 3 68 180 660 448 1336 739 1863 96 175 98 177 119 170 9 -2 50
-14 91 -24z m4581 -98 c164 -289 355 -706 493 -1074 110 -294 297 -891 284
-905 -3 -2 -20 1 -39 6 -37 11 -118 29 -274 61 -55 11 -107 22 -115 24 -134
30 -443 81 -745 124 -205 29 -243 34 -374 47 -63 7 -65 8 -227 135 -324 253
-704 524 -1004 714 -197 125 -195 99 -18 198 174 97 559 289 723 361 61 27
133 59 160 72 174 78 567 220 810 293 174 51 235 69 247 70 4 1 39 -56 79
-126z m-2238 -969 c267 -167 853 -574 982 -681 l29 -25 -74 6 c-113 9 -212 15
-355 22 -71 3 -161 7 -200 9 -82 5 -948 5 -1050 0 -204 -9 -347 -16 -405 -20
-36 -3 -101 -7 -145 -10 l-80 -6 30 25 c17 14 48 38 70 53 22 15 42 30 45 33
3 3 46 35 95 71 371 271 895 615 922 604 7 -2 68 -39 136 -81z m527 -888 c19
-2 91 -7 160 -11 69 -3 141 -8 160 -10 19 -2 76 -6 125 -10 50 -3 148 -10 218
-17 l129 -11 131 -110 c543 -453 1146 -1041 1592 -1552 43 -49 92 -106 109
-125 17 -19 77 -89 132 -156 102 -120 102 -120 108 -185 17 -174 24 -266 31
-379 3 -52 8 -116 10 -143 27 -320 27 -1416 1 -1737 -3 -25 -7 -94 -11 -155
-3 -60 -8 -126 -10 -145 -2 -19 -6 -66 -10 -105 -17 -210 -8 -185 -102 -298
-159 -191 -389 -453 -489 -557 -35 -36 -71 -75 -82 -87 -24 -28 -34 -29 -56
-4 -26 29 -153 89 -226 107 -84 22 -226 21 -309 -1 -292 -76 -490 -344 -475
-643 6 -122 42 -229 114 -338 l21 -32 -98 -83 c-99 -85 -123 -106 -178 -154
-88 -77 -207 -169 -221 -171 -8 -1 -48 -5 -87 -8 -40 -4 -90 -8 -112 -11 -58
-6 -294 -23 -420 -30 -452 -25 -1326 -25 -1660 0 -33 3 -132 9 -220 15 -88 6
-171 13 -185 15 -19 3 -149 15 -212 19 -15 2 -387 312 -504 421 -6 5 -60 55
-120 110 -276 253 -653 628 -909 905 -91 99 -155 170 -210 235 -27 32 -57 66
-65 75 -8 9 -37 43 -65 75 -27 33 -52 62 -55 65 -3 3 -37 43 -77 90 -64 77
-72 90 -77 140 -4 30 -8 71 -11 90 -2 19 -7 76 -10 125 -3 50 -8 113 -10 140
-4 51 -11 151 -20 305 -16 293 -23 1048 -11 1280 3 58 8 155 12 215 13 270 29
481 50 674 4 41 18 63 100 161 51 60 219 256 229 266 5 6 39 44 75 84 177 200
301 331 555 585 310 311 395 391 705 666 106 94 371 319 395 334 11 7 52 16
90 20 39 3 90 8 115 10 59 6 160 13 290 20 58 4 116 9 130 11 14 2 126 7 250
10 124 4 227 8 229 11 6 5 993 -6 1041 -11z m-2555 -134 c-17 -15 -66 -58
-110 -96 -76 -66 -185 -164 -339 -306 -243 -224 -661 -648 -886 -899 -41 -45
-88 -97 -103 -115 -16 -17 -56 -63 -90 -103 -33 -40 -63 -71 -65 -69 -7 8 14
158 59 426 56 334 89 501 160 806 l31 131 141 32 c365 83 884 179 1117 206 30
4 57 9 59 11 2 2 16 4 30 4 l26 0 -30 -28z m3896 8 c118 -18 458 -73 531 -85
149 -26 670 -143 680 -153 12 -12 125 -520 152 -682 7 -43 14 -80 26 -145 5
-27 12 -68 15 -90 4 -22 13 -83 21 -135 36 -237 45 -302 41 -306 -2 -2 -38 35
-79 83 -42 49 -91 105 -109 125 -19 20 -65 72 -104 115 -135 150 -212 230
-470 488 -320 321 -349 348 -825 773 -19 17 -30 32 -24 32 6 0 71 -9 145 -20z
m-6528 -170 c61 -23 136 -77 181 -131 26 -31 27 -34 10 -41 -11 -4 -86 -33
-169 -64 -82 -31 -242 -97 -355 -146 -113 -49 -209 -90 -215 -91 -6 -1 -10 35
-10 93 0 87 3 101 32 160 18 36 46 81 62 101 55 66 169 128 261 142 54 8 149
-3 203 -23z m9207 6 c161 -48 270 -187 294 -373 10 -77 11 -77 -197 12 -106
45 -275 113 -376 151 l-184 68 51 47 c114 104 265 139 412 95z m-8160 -149 c0
-7 -13 -71 -29 -142 -26 -114 -112 -548 -125 -630 -48 -297 -114 -793 -109
-816 1 -3 -38 -55 -86 -115 -79 -99 -284 -368 -321 -421 -8 -11 -63 -88 -121
-170 -124 -173 -287 -416 -369 -550 l-58 -94 -55 98 c-139 249 -275 515 -362
708 -62 137 -105 237 -145 335 -23 58 -46 114 -51 125 -54 119 -245 703 -264
807 l-6 33 138 76 c76 41 164 89 195 105 l57 29 61 -62 c138 -141 283 -201
476 -197 350 7 614 282 615 640 l0 91 117 36 c184 58 416 126 430 126 6 1 12
-5 12 -12z m7180 -53 c102 -31 195 -59 207 -61 21 -5 21 -9 16 -93 -16 -243
94 -456 302 -585 169 -105 399 -121 582 -40 102 45 202 128 268 219 l20 29
130 -68 c160 -83 324 -175 330 -185 7 -11 -66 -266 -140 -485 -60 -180 -192
-522 -257 -665 -16 -36 -43 -96 -61 -135 -51 -115 -267 -540 -347 -682 l-74
-133 -39 63 c-263 415 -554 825 -852 1198 l-61 76 -13 114 c-7 63 -24 193 -37
289 -13 96 -26 193 -29 215 -3 22 -10 63 -15 90 -5 28 -11 64 -13 80 -7 45
-15 92 -53 290 -32 169 -43 225 -92 448 l-19 89 31 -6 c18 -3 115 -31 216 -62z
m554 -180 c256 -92 636 -251 636 -267 0 -20 -95 -99 -153 -126 -169 -81 -346
-52 -476 79 -31 30 -66 75 -79 100 -37 72 -55 171 -43 243 2 11 6 10 115 -29z
m-8507 -51 c-11 -102 -42 -176 -104 -244 -133 -147 -344 -185 -512 -93 -52 28
-111 77 -111 91 0 18 667 297 724 302 5 1 6 -25 3 -56z m-1436 -958 c184 -581
460 -1201 800 -1792 33 -56 59 -107 59 -112 0 -6 -22 -48 -49 -93 -122 -207
-326 -602 -434 -839 -201 -443 -308 -734 -460 -1252 -3 -9 -225 140 -332 223
-65 49 -243 198 -273 227 -10 10 -6 21 23 59 83 108 126 234 128 369 1 109
-17 183 -69 292 -123 256 -414 399 -689 338 -42 -9 -93 -23 -112 -31 -19 -9
-36 -14 -38 -12 -20 21 -107 327 -121 423 -3 28 -9 59 -11 70 -13 54 -11 395
3 485 97 629 493 1200 1199 1730 72 53 166 121 210 149 l80 53 18 -64 c10 -35
41 -135 68 -223z m11534 226 c22 -14 45 -29 50 -33 307 -224 445 -340 620
-515 403 -404 650 -855 721 -1311 19 -124 25 -364 13 -467 -61 -492 -303 -948
-734 -1381 -157 -158 -197 -193 -375 -336 -95 -76 -390 -284 -390 -275 0 28
-138 462 -207 647 -159 434 -439 1026 -681 1439 -31 52 -55 99 -55 105 0 6 21
45 46 87 175 295 427 800 568 1143 27 66 54 130 59 141 52 119 205 574 259
773 l12 43 27 -17 c15 -10 45 -29 67 -43z m-9630 -1013 c-2 -18 -7 -87 -10
-153 -4 -66 -9 -136 -11 -155 -23 -258 -23 -1378 1 -1620 1 -19 6 -93 10 -165
4 -71 9 -138 10 -147 9 -45 -12 -19 -206 247 -215 297 -579 848 -579 878 0 18
236 386 403 627 97 141 376 520 382 520 1 0 1 -15 0 -32z m7700 -168 c206
-279 442 -628 596 -882 l41 -68 -73 -117 c-102 -165 -292 -450 -422 -633 -133
-187 -286 -390 -293 -390 -3 0 -3 19 0 43 3 23 8 103 12 177 3 74 7 146 10
160 6 42 18 532 17 770 0 224 -10 674 -17 760 -2 25 -7 98 -11 163 -3 64 -8
141 -11 170 -3 33 -2 48 4 42 6 -5 71 -93 147 -195z m-8490 -1350 c205 -323
547 -798 765 -1066 l62 -75 24 -197 c13 -108 28 -226 34 -262 5 -36 12 -81 14
-100 32 -234 90 -553 153 -838 25 -116 44 -214 42 -217 -7 -6 -130 28 -380
105 -351 109 -601 201 -947 349 -212 91 -659 317 -752 381 l-22 15 20 75 c44
164 55 201 118 389 121 361 259 692 454 1086 129 261 287 552 294 543 2 -2 56
-86 121 -188z m9329 55 c98 -176 284 -548 361 -720 36 -83 72 -163 80 -180
135 -304 384 -1042 358 -1065 -31 -29 -513 -280 -668 -347 -421 -183 -661
-273 -1060 -397 -237 -73 -365 -109 -370 -104 -1 2 13 71 31 153 32 145 106
519 118 600 4 22 15 92 26 155 25 151 27 162 64 455 l32 251 136 174 c287 368
519 697 773 1097 22 34 43 59 46 55 4 -4 37 -61 73 -127z m-11471 -555 c62
-23 140 -78 180 -126 89 -106 120 -266 76 -396 -18 -55 -72 -148 -85 -148 -11
0 -146 149 -220 241 -100 125 -274 388 -274 414 0 4 84 32 115 38 46 8 156 -4
208 -23z m-303 -446 c75 -100 159 -202 230 -277 64 -69 66 -75 28 -82 -152
-28 -290 12 -392 112 -114 112 -154 273 -105 424 11 35 27 74 36 87 14 23 15
22 75 -74 33 -54 91 -139 128 -190z m3613 -601 c93 -109 93 -110 197 -224 175
-192 240 -260 470 -489 337 -336 454 -446 748 -705 67 -59 122 -110 122 -112
0 -3 -12 -2 -27 1 -16 3 -48 8 -73 11 -194 25 -586 91 -805 136 -185 38 -450
101 -458 109 -10 9 -56 199 -102 420 -77 376 -168 940 -152 940 3 0 38 -39 80
-87z m6862 -29 c-8 -60 -22 -152 -31 -204 -8 -52 -17 -108 -20 -125 -45 -280
-175 -901 -192 -916 -8 -8 -206 -55 -388 -93 -264 -56 -612 -115 -949 -161
l-30 -4 40 37 c69 63 187 167 197 173 5 3 44 -9 86 -27 107 -46 168 -57 292
-51 133 6 216 32 314 98 148 99 249 251 281 424 19 107 -3 268 -53 373 l-24
52 78 87 c44 48 94 103 112 122 18 20 92 103 164 184 72 81 133 146 135 143 2
-2 -3 -53 -12 -112z m-904 -344 c35 -11 81 -31 101 -45 l38 -25 -133 -131
c-233 -231 -448 -434 -463 -437 -9 -2 -25 20 -47 65 -30 64 -32 75 -32 178 0
101 2 115 29 170 34 70 132 172 191 200 102 48 214 57 316 25z m-8144 -225
c35 -24 219 -121 382 -201 469 -230 992 -428 1511 -574 102 -29 208 -59 237
-66 46 -13 52 -19 58 -47 16 -75 139 -487 201 -672 162 -488 389 -1016 593
-1379 39 -70 70 -131 67 -134 -5 -5 -143 -33 -231 -46 -151 -24 -204 -31 -315
-41 -36 -3 -83 -8 -105 -10 -22 -2 -76 -5 -119 -6 l-80 -2 -26 80 c-66 199
-205 341 -402 410 -93 33 -250 41 -343 18 -145 -36 -319 -155 -381 -261 -14
-24 -28 -44 -31 -44 -20 0 -208 102 -294 159 -118 79 -159 113 -278 226 -330
316 -541 810 -587 1375 -15 190 -12 416 10 670 17 187 83 560 101 560 6 0 20
-7 32 -15z m11215 -26 c10 -45 56 -314 62 -364 14 -103 17 -136 25 -220 13
-143 11 -557 -4 -675 -20 -154 -43 -282 -71 -390 -173 -656 -581 -1118 -1187
-1344 -154 -58 -150 -58 -179 5 -97 210 -331 358 -566 359 -238 0 -470 -142
-570 -351 -22 -46 -43 -99 -47 -118 l-7 -33 -77 6 c-122 10 -465 66 -477 79
-5 4 67 146 87 172 16 21 182 360 245 502 193 431 376 946 500 1412 18 68 37
127 41 131 4 4 58 19 118 35 368 93 1054 329 1320 455 22 10 81 37 132 59 114
50 440 213 548 274 44 25 84 44 90 43 5 -1 13 -18 17 -37z m-2780 -83 c27
-163 -49 -331 -190 -420 -57 -36 -153 -66 -211 -66 -57 0 -151 18 -165 31 -6
5 34 50 100 113 60 57 183 176 274 265 90 88 168 157 173 152 4 -4 13 -38 19
-75z m-5922 -827 c152 -36 554 -114 745 -145 17 -2 55 -9 85 -14 30 -5 71 -11
90 -15 39 -6 465 -60 548 -69 48 -6 64 -14 150 -84 314 -253 819 -612 1150
-816 51 -32 92 -59 90 -60 -2 -2 -69 -40 -150 -85 -318 -176 -817 -413 -1088
-518 -257 -99 -542 -193 -787 -261 l-73 -20 -37 61 c-66 109 -247 462 -321
627 -151 337 -317 789 -429 1170 -64 220 -72 250 -65 250 4 0 45 -9 92 -21z
m6225 -11 c-28 -130 -154 -526 -258 -813 -136 -375 -351 -847 -523 -1147 l-66
-116 -92 24 c-194 52 -352 103 -591 192 -82 30 -167 61 -187 68 -197 71 -814
367 -1082 518 l-149 84 62 38 c345 213 845 567 1186 840 l90 72 250 31 c330
42 301 38 540 77 213 35 659 123 750 148 76 21 78 21 70 -16z m-4065 -293
c148 -13 443 -20 900 -20 535 0 758 6 1065 30 47 4 85 5 85 2 0 -6 -245 -191
-395 -298 -133 -96 -429 -293 -598 -398 l-148 -92 -142 87 c-142 87 -474 308
-597 397 -36 26 -74 53 -85 61 -36 26 -320 238 -325 243 -4 4 141 -3 240 -12z
m1059 -1108 c213 -122 255 -145 486 -260 485 -242 964 -435 1374 -553 86 -24
162 -47 169 -49 22 -8 -201 -321 -363 -511 -149 -175 -325 -349 -475 -471
-315 -255 -675 -430 -1017 -495 -153 -29 -473 -31 -624 -5 -603 105 -1175 504
-1673 1167 -109 145 -221 309 -215 313 2 2 58 18 124 37 551 154 1297 473
1855 792 155 89 205 117 209 118 3 0 70 -38 150 -83z m-4042 -538 c127 -40
243 -153 278 -268 l7 -24 -118 7 c-135 7 -163 10 -289 32 -104 17 -326 73
-338 84 -14 12 95 114 147 139 103 48 223 60 313 30z m7729 -3 c66 -23 103
-45 152 -89 41 -38 102 -120 102 -138 0 -8 -76 -25 -155 -34 -27 -4 -60 -8
-72 -10 -89 -14 -432 -24 -516 -15 l-48 5 31 63 c78 154 235 246 405 236 33
-2 79 -10 101 -18z m-8031 -431 c118 -26 371 -61 498 -69 44 -3 81 -7 84 -10
8 -8 -25 -84 -57 -132 -61 -87 -179 -160 -283 -172 -241 -29 -460 144 -475
375 l-5 72 64 -19 c35 -11 114 -31 174 -45z m8314 -57 c-35 -160 -178 -299
-334 -324 -97 -16 -210 4 -290 51 -59 34 -128 108 -158 168 -47 94 -65 86 213
91 135 3 259 7 275 10 17 3 68 10 115 16 47 6 103 15 125 19 66 14 64 15 54
-31z"/>
<path d="M7767 10024 c-1 -1 -85 -4 -187 -8 -102 -3 -198 -8 -215 -11 -16 -2
-59 -6 -95 -9 -371 -28 -766 -128 -962 -243 -71 -42 -140 -108 -170 -166 -23
-42 -23 -46 -26 -496 -2 -390 -1 -460 13 -501 14 -42 14 -50 0 -76 -22 -43
-22 -880 0 -944 13 -37 13 -45 0 -70 -22 -43 -22 -878 0 -943 13 -40 13 -48 0
-73 -13 -24 -15 -98 -15 -465 0 -512 -2 -499 94 -594 147 -146 473 -255 931
-310 72 -9 146 -18 165 -20 145 -18 640 -25 870 -11 132 7 349 29 420 41 14 3
43 7 65 11 97 13 288 56 375 82 257 80 402 168 465 283 l30 54 1 445 c1 357
-2 452 -13 479 -11 28 -11 41 -1 70 9 26 13 156 14 476 1 368 -1 445 -14 473
-12 27 -12 37 -1 65 21 48 20 936 0 961 -12 14 -12 23 0 59 11 34 14 134 14
502 -1 451 -1 461 -22 500 -115 212 -541 359 -1213 419 -90 8 -517 24 -523 20z
m458 -228 c150 -14 187 -18 290 -32 426 -56 795 -186 795 -279 0 -101 -450
-252 -870 -291 -36 -4 -67 -8 -70 -9 -31 -19 -765 -27 -975 -12 -471 35 -918
149 -1042 267 -49 45 -18 92 99 151 96 48 319 116 473 144 309 55 557 73 945
69 162 -1 322 -5 355 -8z m-1750 -660 c133 -54 395 -117 585 -141 25 -3 61 -8
80 -10 157 -22 433 -38 665 -39 163 0 444 10 495 18 14 3 61 7 104 11 43 4 86
8 95 10 9 1 41 6 71 10 213 27 451 84 606 146 44 17 84 34 89 38 6 4 18 11 28
14 16 6 17 -11 17 -274 l0 -280 -31 -28 c-97 -89 -409 -184 -754 -230 -255
-35 -403 -44 -705 -44 -314 0 -458 9 -710 44 -361 50 -664 144 -753 232 l-32
33 1 274 c1 151 2 276 3 278 1 1 13 -4 29 -12 15 -8 67 -30 117 -50z m-35
-1001 c192 -82 416 -132 820 -180 218 -26 948 -26 1111 0 13 2 56 6 94 10 259
24 587 103 774 186 35 16 65 29 67 29 2 0 4 -126 4 -279 l0 -279 -34 -30
c-129 -113 -531 -215 -1011 -257 -145 -12 -806 -13 -900 -1 -22 3 -65 8 -95
11 -121 13 -150 16 -270 36 -308 51 -574 142 -649 223 l-25 26 -1 268 c-1 147
1 271 3 275 2 5 9 6 16 3 6 -2 49 -21 96 -41z m110 -1058 c173 -57 457 -114
670 -133 36 -3 76 -7 89 -9 113 -18 583 -25 836 -12 454 22 887 109 1118 224
l47 23 0 -275 c0 -159 -4 -284 -10 -294 -42 -80 -404 -203 -720 -246 -25 -3
-56 -8 -70 -10 -14 -2 -54 -7 -90 -10 -36 -4 -72 -9 -81 -10 -92 -17 -637 -25
-861 -13 -444 26 -836 108 -1050 220 -106 56 -101 40 -103 336 0 141 1 267 3
279 l4 22 57 -29 c31 -16 103 -44 161 -63z m-185 -941 c28 -19 165 -71 265
-100 182 -54 470 -101 735 -122 44 -3 103 -7 130 -10 65 -5 588 -5 640 0 22 3
81 7 130 11 127 8 231 20 370 41 240 36 482 103 617 170 26 13 50 24 53 24 3
0 5 -126 5 -280 l0 -279 -27 -25 c-125 -116 -591 -235 -1028 -262 -49 -3 -103
-7 -120 -9 -39 -6 -552 -6 -635 0 -112 7 -223 16 -260 21 -96 11 -132 16 -220
30 -303 47 -586 141 -665 220 l-30 31 1 269 c1 148 2 272 3 277 1 11 14 9 36
-7z"/>
<path d="M7097 8789 c-46 -35 -66 -171 -33 -221 27 -41 73 -52 266 -62 36 -2
76 -7 90 -11 39 -10 603 -13 725 -3 345 27 364 31 399 69 27 30 28 36 23 98
-6 82 -20 114 -62 136 -29 16 -42 17 -136 6 -274 -32 -836 -33 -1094 -2 -121
15 -149 13 -178 -10z"/>
<path d="M7130 7786 c-47 -16 -71 -53 -79 -124 -15 -127 24 -158 210 -167 62
-3 115 -7 118 -10 26 -15 662 -25 776 -11 22 3 101 10 175 16 158 13 192 22
221 58 18 23 20 36 16 99 -6 84 -30 127 -80 141 -31 9 -130 1 -210 -17 -21 -5
-234 -7 -475 -6 -380 3 -474 7 -613 28 -14 2 -41 -1 -59 -7z"/>
<path d="M7115 6766 c-16 -7 -36 -23 -43 -35 -21 -35 -30 -146 -16 -180 23
-55 49 -63 244 -77 36 -2 99 -8 140 -13 97 -11 629 -11 740 0 128 12 189 18
251 23 112 8 146 49 135 158 -11 103 -54 144 -141 132 -152 -20 -309 -28 -595
-28 -305 -1 -474 7 -640 28 -28 3 -56 1 -75 -8z"/>
<path d="M7120 5753 c-46 -17 -71 -73 -72 -163 0 -58 22 -95 65 -109 31 -10
105 -19 212 -26 28 -1 93 -6 145 -11 122 -11 566 -11 690 -1 52 5 113 10 135
12 203 16 219 20 251 58 25 29 26 36 21 99 -11 128 -44 155 -179 143 -46 -4
-92 -9 -103 -12 -102 -24 -795 -20 -1010 6 -89 11 -133 12 -155 4z"/>
</g>
</svg>
